#N canvas 424 245 863 666 10;
#N canvas 548 264 450 440 fm 0;
#X obj 124 358 outlet~;
#X obj 125 293 osc~;
#X obj 121 259 +~;
#X obj 59 107 ctlin 8;
#X obj 173 141 osc~;
#X obj 173 76 mtof;
#X obj 174 50 ctlin 9;
#X obj 236 87 ctlin 10;
#X obj 236 129 / 127;
#X obj 301 89 noise~;
#X obj 174 224 +~;
#X obj 319 153 *~;
#X obj 353 89 ctlin 11;
#X obj 353 115 / 127;
#X obj 173 195 *~;
#X obj 59 156 mtof~;
#X obj 293 202 *~ 1000;
#X obj 236 159 * 2000;
#X obj 171 110 / 2;
#X connect 1 0 0 0;
#X connect 2 0 1 0;
#X connect 3 0 15 0;
#X connect 4 0 14 0;
#X connect 5 0 18 0;
#X connect 6 0 5 0;
#X connect 7 0 8 0;
#X connect 8 0 17 0;
#X connect 9 0 11 0;
#X connect 10 0 2 1;
#X connect 11 0 16 0;
#X connect 12 0 13 0;
#X connect 13 0 11 1;
#X connect 14 0 10 0;
#X connect 15 0 2 0;
#X connect 16 0 10 1;
#X connect 17 0 14 1;
#X connect 18 0 4 0;
#X restore 449 245 pd fm;
#N canvas 316 244 829 662 filter 0;
#X obj 460 28 inlet~;
#X obj 403 28 inlet~;
#X obj 564 640 outlet~;
#X obj 533 27 ctlin 4;
#X obj 533 48 / 127;
#X obj 460 126 *~;
#X obj 533 97 + 1;
#X obj 515 123 *~;
#X obj 533 72 * -1;
#X obj 512 315 lop~;
#X obj 570 157 ctlin 5;
#X obj 569 183 mtof;
#X obj 594 346 hip~;
#X obj 516 152 /~ 4;
#X obj 637 190 mtof;
#X obj 637 165 ctlin 7;
#X obj 515 445 *~;
#X obj 581 444 *~;
#X obj 438 321 ctlin 6;
#X obj 438 349 / 127;
#X obj 441 385 * -1;
#X obj 440 411 + 1;
#X obj 512 339 lop~;
#X obj 512 361 lop~;
#X obj 511 384 lop~;
#X obj 595 371 hip~;
#X obj 569 208 * 0.9925;
#X obj 570 230 + 100;
#X obj 561 556 *~ 0.5;
#X connect 0 0 5 0;
#X connect 1 0 7 0;
#X connect 3 0 4 0;
#X connect 4 0 8 0;
#X connect 4 0 5 1;
#X connect 5 0 13 0;
#X connect 6 0 7 1;
#X connect 7 0 13 0;
#X connect 8 0 6 0;
#X connect 9 0 22 0;
#X connect 10 0 11 0;
#X connect 11 0 26 0;
#X connect 12 0 25 0;
#X connect 13 0 9 0;
#X connect 13 0 12 0;
#X connect 14 0 12 1;
#X connect 14 0 25 1;
#X connect 15 0 14 0;
#X connect 16 0 28 0;
#X connect 17 0 28 0;
#X connect 18 0 19 0;
#X connect 19 0 20 0;
#X connect 19 0 17 0;
#X connect 20 0 21 0;
#X connect 21 0 16 0;
#X connect 22 0 23 0;
#X connect 23 0 24 0;
#X connect 24 0 16 1;
#X connect 25 0 17 1;
#X connect 26 0 27 0;
#X connect 27 0 9 1;
#X connect 27 0 22 1;
#X connect 27 0 23 1;
#X connect 27 0 24 1;
#X connect 28 0 2 0;
#X restore 356 329 pd filter;
#N canvas 579 182 701 541 fx 0;
#X obj 293 88 inlet~;
#X obj 244 461 outlet~;
#X obj 341 462 outlet~;
#N canvas 642 166 665 611 reverb 0;
#X obj 128 161 hsl 128 15 0 1 0 1 empty empty 'roomsize' 20 8 0 10
-262144 -260097 -1 1270 0;
#X obj 143 204 hsl 128 15 0 2 0 1 empty empty damp 20 8 0 10 -262144
-260097 -1 9400 0;
#X floatatom 134 182 5 0 0 0 - - -, f 5;
#X floatatom 149 224 5 0 0 0 - - -, f 5;
#X obj 173 297 hsl 128 15 0 1 0 1 empty empty wet 20 8 0 10 -262144
-260097 -1 1905 0;
#X obj 158 247 hsl 128 15 0 1 0 1 empty empty dry 20 8 0 10 -262144
-260097 -1 11430 0;
#X floatatom 184 320 5 0 0 0 - - -, f 5;
#X floatatom 163 271 5 0 0 0 - - -, f 5;
#N canvas 90 308 634 321 vfreeverb~ 0;
#N canvas 261 50 778 367 combfilters-left1 0;
#X obj 46 244 +~;
#X obj 61 219 *~ 0.3;
#X obj 61 194 lop~ 1000;
#X obj 231 244 +~;
#X obj 246 219 *~ 0.3;
#X obj 246 194 lop~ 1000;
#X obj 429 218 *~ 0.3;
#X obj 429 193 lop~ 1000;
#X obj 414 241 +~;
#X obj 610 218 *~ 0.3;
#X obj 610 193 lop~ 1000;
#X obj 595 241 +~;
#X obj 61 141 delread~ \$0-comb1left;
#X obj 246 142 delread~ \$0-comb2left;
#X obj 429 141 delread~ \$0-comb3left;
#X obj 610 141 delread~ \$0-comb4left;
#X obj 46 268 delwrite~ \$0-comb1left 100;
#X obj 231 268 delwrite~ \$0-comb2left 100;
#X obj 414 267 delwrite~ \$0-comb3left 100;
#X obj 595 267 delwrite~ \$0-comb4left 100;
#X obj 61 97 r \$0-comb1left;
#X obj 246 97 r \$0-comb2left;
#X obj 429 95 r \$0-comb3left;
#X obj 610 96 r \$0-comb4left;
#X obj 112 170 r \$0-frequency;
#X obj 297 170 r \$0-frequency;
#X obj 480 167 r \$0-frequency;
#X obj 661 167 r \$0-frequency;
#X obj 46 28 inlet~;
#X obj 338 326 outlet~;
#X floatatom 70 119 5 0 0 0 - - -, f 5;
#X floatatom 255 121 5 0 0 0 - - -, f 5;
#X floatatom 439 119 5 0 0 0 - - -, f 5;
#X floatatom 622 121 5 0 0 0 - - -, f 5;
#X obj 279 58 clip 0 0.99;
#X obj 279 29 r \$0-room;
#X connect 0 0 16 0;
#X connect 1 0 0 1;
#X connect 2 0 1 0;
#X connect 3 0 17 0;
#X connect 4 0 3 1;
#X connect 5 0 4 0;
#X connect 6 0 8 1;
#X connect 7 0 6 0;
#X connect 8 0 18 0;
#X connect 9 0 11 1;
#X connect 10 0 9 0;
#X connect 11 0 19 0;
#X connect 12 0 2 0;
#X connect 12 0 29 0;
#X connect 13 0 5 0;
#X connect 13 0 29 0;
#X connect 14 0 7 0;
#X connect 14 0 29 0;
#X connect 15 0 10 0;
#X connect 15 0 29 0;
#X connect 20 0 12 0;
#X connect 20 0 30 0;
#X connect 21 0 13 0;
#X connect 21 0 31 0;
#X connect 22 0 14 0;
#X connect 22 0 32 0;
#X connect 23 0 15 0;
#X connect 23 0 33 0;
#X connect 24 0 2 1;
#X connect 25 0 5 1;
#X connect 26 0 7 1;
#X connect 27 0 10 1;
#X connect 28 0 0 0;
#X connect 28 0 3 0;
#X connect 28 0 8 0;
#X connect 28 0 11 0;
#X connect 34 0 1 1;
#X connect 34 0 4 1;
#X connect 34 0 6 1;
#X connect 34 0 9 1;
#X connect 35 0 34 0;
#X restore 15 100 pd combfilters-left1;
#N canvas 27 56 358 650 diffusor-left 0;
#X obj 51 107 *~ 0.5;
#X obj 36 132 +~;
#X obj 66 132 -~;
#X obj 36 26 inlet~;
#X obj 81 238 *~ 0.5;
#X obj 66 263 +~;
#X obj 96 263 -~;
#X obj 111 368 *~ 0.5;
#X obj 96 393 +~;
#X obj 126 393 -~;
#X obj 141 498 *~ 0.5;
#X obj 126 523 +~;
#X obj 156 523 -~;
#X obj 156 605 outlet~;
#X text 95 28 freeverb's diffusor;
#X obj 156 576 hip~ 5;
#X floatatom 214 70 5 0 0 0 - - -, f 5;
#X floatatom 246 203 5 0 0 0 - - -, f 5;
#X floatatom 280 334 5 0 0 0 - - -, f 5;
#X floatatom 304 464 5 0 0 0 - - -, f 5;
#X obj 51 53 r \$0-allpass1left;
#X obj 51 80 delread~ \$0-allpass1left;
#X obj 36 158 delwrite~ \$0-allpass1left 40;
#X obj 81 186 r \$0-allpass2left;
#X obj 81 211 delread~ \$0-allpass2left;
#X obj 66 290 delwrite~ \$0-allpass2left 40;
#X obj 111 317 r \$0-allpass3left;
#X obj 111 341 delread~ \$0-allpass3left;
#X obj 96 420 delwrite~ \$0-allpass3left 40;
#X obj 141 447 r \$0-allpass4left;
#X obj 141 471 delread~ \$0-allpass4left;
#X obj 126 550 delwrite~ \$0-allpass4left 40;
#X connect 0 0 1 1;
#X connect 1 0 22 0;
#X connect 2 0 5 0;
#X connect 2 0 6 1;
#X connect 3 0 1 0;
#X connect 3 0 2 1;
#X connect 4 0 5 1;
#X connect 5 0 25 0;
#X connect 6 0 8 0;
#X connect 6 0 9 1;
#X connect 7 0 8 1;
#X connect 8 0 28 0;
#X connect 9 0 11 0;
#X connect 9 0 12 1;
#X connect 10 0 11 1;
#X connect 11 0 31 0;
#X connect 12 0 15 0;
#X connect 15 0 13 0;
#X connect 20 0 16 0;
#X connect 20 0 21 0;
#X connect 21 0 0 0;
#X connect 21 0 2 0;
#X connect 23 0 17 0;
#X connect 23 0 24 0;
#X connect 24 0 4 0;
#X connect 24 0 6 0;
#X connect 26 0 18 0;
#X connect 26 0 27 0;
#X connect 27 0 7 0;
#X connect 27 0 9 0;
#X connect 29 0 19 0;
#X connect 29 0 30 0;
#X connect 30 0 10 0;
#X connect 30 0 12 0;
#X restore 15 168 pd diffusor-left;
#N canvas 312 366 778 367 combfilters-left2 0;
#X obj 46 244 +~;
#X obj 61 219 *~ 0.3;
#X obj 61 194 lop~ 1000;
#X obj 231 244 +~;
#X obj 246 219 *~ 0.3;
#X obj 246 194 lop~ 1000;
#X obj 429 218 *~ 0.3;
#X obj 429 193 lop~ 1000;
#X obj 414 241 +~;
#X obj 610 218 *~ 0.3;
#X obj 610 193 lop~ 1000;
#X obj 595 241 +~;
#X obj 112 170 r \$0-frequency;
#X obj 297 170 r \$0-frequency;
#X obj 480 167 r \$0-frequency;
#X obj 661 167 r \$0-frequency;
#X obj 46 28 inlet~;
#X obj 338 326 outlet~;
#X obj 61 90 r \$0-comb5left;
#X obj 61 141 delread~ \$0-comb5left;
#X obj 46 268 delwrite~ \$0-comb5left 100;
#X obj 246 90 r \$0-comb6left;
#X obj 246 142 delread~ \$0-comb6left;
#X obj 231 268 delwrite~ \$0-comb6left 100;
#X obj 429 88 r \$0-comb7left;
#X obj 429 141 delread~ \$0-comb7left;
#X obj 414 267 delwrite~ \$0-comb7left 100;
#X obj 610 89 r \$0-comb8left;
#X obj 610 141 delread~ \$0-comb8left;
#X obj 595 267 delwrite~ \$0-comb8left 100;
#X floatatom 70 116 5 0 0 0 - - -, f 5;
#X floatatom 261 118 5 0 0 0 - - -, f 5;
#X floatatom 440 117 5 0 0 0 - - -, f 5;
#X floatatom 620 116 5 0 0 0 - - -, f 5;
#X obj 279 58 clip 0 0.99;
#X obj 279 28 r \$0-room;
#X connect 0 0 20 0;
#X connect 1 0 0 1;
#X connect 2 0 1 0;
#X connect 3 0 23 0;
#X connect 4 0 3 1;
#X connect 5 0 4 0;
#X connect 6 0 8 1;
#X connect 7 0 6 0;
#X connect 8 0 26 0;
#X connect 9 0 11 1;
#X connect 10 0 9 0;
#X connect 11 0 29 0;
#X connect 12 0 2 1;
#X connect 13 0 5 1;
#X connect 14 0 7 1;
#X connect 15 0 10 1;
#X connect 16 0 0 0;
#X connect 16 0 3 0;
#X connect 16 0 8 0;
#X connect 16 0 11 0;
#X connect 18 0 19 0;
#X connect 18 0 30 0;
#X connect 19 0 2 0;
#X connect 19 0 17 0;
#X connect 21 0 22 0;
#X connect 21 0 31 0;
#X connect 22 0 5 0;
#X connect 22 0 17 0;
#X connect 24 0 25 0;
#X connect 24 0 32 0;
#X connect 25 0 7 0;
#X connect 25 0 17 0;
#X connect 27 0 28 0;
#X connect 27 0 33 0;
#X connect 28 0 10 0;
#X connect 28 0 17 0;
#X connect 34 0 1 1;
#X connect 34 0 4 1;
#X connect 34 0 6 1;
#X connect 34 0 9 1;
#X connect 35 0 34 0;
#X restore 36 134 pd combfilters-left2;
#N canvas 261 50 778 367 combfilters-right1 0;
#X obj 46 244 +~;
#X obj 61 219 *~ 0.3;
#X obj 61 194 lop~ 1000;
#X obj 231 244 +~;
#X obj 246 219 *~ 0.3;
#X obj 246 194 lop~ 1000;
#X obj 429 218 *~ 0.3;
#X obj 429 193 lop~ 1000;
#X obj 414 241 +~;
#X obj 610 218 *~ 0.3;
#X obj 610 193 lop~ 1000;
#X obj 595 241 +~;
#X obj 112 170 r \$0-frequency;
#X obj 297 170 r \$0-frequency;
#X obj 480 167 r \$0-frequency;
#X obj 661 167 r \$0-frequency;
#X obj 46 28 inlet~;
#X obj 338 326 outlet~;
#X floatatom 70 119 5 0 0 0 - - -, f 5;
#X floatatom 255 121 5 0 0 0 - - -, f 5;
#X floatatom 439 119 5 0 0 0 - - -, f 5;
#X floatatom 622 121 5 0 0 0 - - -, f 5;
#X obj 61 141 delread~ \$0-comb1right;
#X obj 246 142 delread~ \$0-comb2right;
#X obj 429 141 delread~ \$0-comb3right;
#X obj 610 141 delread~ \$0-comb4right;
#X obj 61 97 r \$0-comb1right;
#X obj 246 97 r \$0-comb2right;
#X obj 429 95 r \$0-comb3right;
#X obj 610 97 r \$0-comb4right;
#X obj 46 268 delwrite~ \$0-comb1right 100;
#X obj 231 268 delwrite~ \$0-comb2right 100;
#X obj 414 267 delwrite~ \$0-comb3right 100;
#X obj 595 267 delwrite~ \$0-comb4right 100;
#X obj 279 58 clip 0 0.99;
#X obj 279 28 r \$0-room;
#X connect 0 0 30 0;
#X connect 1 0 0 1;
#X connect 2 0 1 0;
#X connect 3 0 31 0;
#X connect 4 0 3 1;
#X connect 5 0 4 0;
#X connect 6 0 8 1;
#X connect 7 0 6 0;
#X connect 8 0 32 0;
#X connect 9 0 11 1;
#X connect 10 0 9 0;
#X connect 11 0 33 0;
#X connect 12 0 2 1;
#X connect 13 0 5 1;
#X connect 14 0 7 1;
#X connect 15 0 10 1;
#X connect 16 0 0 0;
#X connect 16 0 3 0;
#X connect 16 0 8 0;
#X connect 16 0 11 0;
#X connect 22 0 2 0;
#X connect 22 0 17 0;
#X connect 23 0 5 0;
#X connect 23 0 17 0;
#X connect 24 0 7 0;
#X connect 24 0 17 0;
#X connect 25 0 10 0;
#X connect 25 0 17 0;
#X connect 26 0 18 0;
#X connect 26 0 22 0;
#X connect 27 0 19 0;
#X connect 27 0 23 0;
#X connect 28 0 20 0;
#X connect 28 0 24 0;
#X connect 29 0 21 0;
#X connect 29 0 25 0;
#X connect 34 0 1 1;
#X connect 34 0 4 1;
#X connect 34 0 6 1;
#X connect 34 0 9 1;
#X connect 35 0 34 0;
#X restore 208 99 pd combfilters-right1;
#N canvas 312 366 778 367 combfilters-right2 0;
#X obj 46 244 +~;
#X obj 61 219 *~ 0.3;
#X obj 61 194 lop~ 1000;
#X obj 231 244 +~;
#X obj 246 219 *~ 0.3;
#X obj 246 194 lop~ 1000;
#X obj 429 218 *~ 0.3;
#X obj 429 193 lop~ 1000;
#X obj 414 241 +~;
#X obj 610 218 *~ 0.3;
#X obj 610 193 lop~ 1000;
#X obj 595 241 +~;
#X obj 112 170 r \$0-frequency;
#X obj 297 170 r \$0-frequency;
#X obj 480 167 r \$0-frequency;
#X obj 661 167 r \$0-frequency;
#X obj 46 28 inlet~;
#X obj 338 326 outlet~;
#X floatatom 70 116 5 0 0 0 - - -, f 5;
#X floatatom 261 118 5 0 0 0 - - -, f 5;
#X floatatom 440 117 5 0 0 0 - - -, f 5;
#X floatatom 620 116 5 0 0 0 - - -, f 5;
#X obj 279 58 clip 0 0.99;
#X obj 61 90 r \$0-comb5right;
#X obj 246 90 r \$0-comb6right;
#X obj 429 88 r \$0-comb7right;
#X obj 610 89 r \$0-comb8right;
#X obj 61 141 delread~ \$0-comb5right;
#X obj 246 142 delread~ \$0-comb6right;
#X obj 429 141 delread~ \$0-comb7right;
#X obj 610 141 delread~ \$0-comb8right;
#X obj 46 268 delwrite~ \$0-comb5right 100;
#X obj 231 268 delwrite~ \$0-comb6right 100;
#X obj 414 267 delwrite~ \$0-comb7right 100;
#X obj 595 267 delwrite~ \$0-comb8right 100;
#X obj 279 28 r \$0-room;
#X connect 0 0 31 0;
#X connect 1 0 0 1;
#X connect 2 0 1 0;
#X connect 3 0 32 0;
#X connect 4 0 3 1;
#X connect 5 0 4 0;
#X connect 6 0 8 1;
#X connect 7 0 6 0;
#X connect 8 0 33 0;
#X connect 9 0 11 1;
#X connect 10 0 9 0;
#X connect 11 0 34 0;
#X connect 12 0 2 1;
#X connect 13 0 5 1;
#X connect 14 0 7 1;
#X connect 15 0 10 1;
#X connect 16 0 0 0;
#X connect 16 0 3 0;
#X connect 16 0 8 0;
#X connect 16 0 11 0;
#X connect 22 0 1 1;
#X connect 22 0 4 1;
#X connect 22 0 6 1;
#X connect 22 0 9 1;
#X connect 23 0 18 0;
#X connect 23 0 27 0;
#X connect 24 0 19 0;
#X connect 24 0 28 0;
#X connect 25 0 20 0;
#X connect 25 0 29 0;
#X connect 26 0 21 0;
#X connect 26 0 30 0;
#X connect 27 0 2 0;
#X connect 27 0 17 0;
#X connect 28 0 5 0;
#X connect 28 0 17 0;
#X connect 29 0 7 0;
#X connect 29 0 17 0;
#X connect 30 0 10 0;
#X connect 30 0 17 0;
#X connect 35 0 22 0;
#X restore 225 133 pd combfilters-right2;
#N canvas 27 56 358 650 diffusor-right 0;
#X obj 51 107 *~ 0.5;
#X obj 36 132 +~;
#X obj 66 132 -~;
#X obj 36 26 inlet~;
#X obj 81 238 *~ 0.5;
#X obj 66 263 +~;
#X obj 96 263 -~;
#X obj 111 368 *~ 0.5;
#X obj 96 393 +~;
#X obj 126 393 -~;
#X obj 141 498 *~ 0.5;
#X obj 126 523 +~;
#X obj 156 523 -~;
#X obj 156 605 outlet~;
#X text 95 28 freeverb's diffusor;
#X obj 156 576 hip~ 5;
#X floatatom 214 70 5 0 0 0 - - -, f 5;
#X floatatom 244 203 5 0 0 0 - - -, f 5;
#X floatatom 280 334 5 0 0 0 - - -, f 5;
#X floatatom 304 464 5 0 0 0 - - -, f 5;
#X obj 51 53 r \$0-allpass1right;
#X obj 51 80 delread~ \$0-allpass1right;
#X obj 36 158 delwrite~ \$0-allpass1right 40;
#X obj 81 186 r \$0-allpass2right;
#X obj 81 211 delread~ \$0-allpass2right;
#X obj 66 290 delwrite~ \$0-allpass2right 40;
#X obj 111 317 r \$0-allpass3right;
#X obj 111 341 delread~ \$0-allpass3right;
#X obj 96 420 delwrite~ \$0-allpass3right 40;
#X obj 141 447 r \$0-allpass4right;
#X obj 141 471 delread~ \$0-allpass4right;
#X obj 126 550 delwrite~ \$0-allpass4right 40;
#X connect 0 0 1 1;
#X connect 1 0 22 0;
#X connect 2 0 5 0;
#X connect 2 0 6 1;
#X connect 3 0 1 0;
#X connect 3 0 2 1;
#X connect 4 0 5 1;
#X connect 5 0 25 0;
#X connect 6 0 8 0;
#X connect 6 0 9 1;
#X connect 7 0 8 1;
#X connect 8 0 28 0;
#X connect 9 0 11 0;
#X connect 9 0 12 1;
#X connect 10 0 11 1;
#X connect 11 0 31 0;
#X connect 12 0 15 0;
#X connect 15 0 13 0;
#X connect 20 0 16 0;
#X connect 20 0 21 0;
#X connect 21 0 0 0;
#X connect 21 0 2 0;
#X connect 23 0 17 0;
#X connect 23 0 24 0;
#X connect 24 0 4 0;
#X connect 24 0 6 0;
#X connect 26 0 18 0;
#X connect 26 0 27 0;
#X connect 27 0 7 0;
#X connect 27 0 9 0;
#X connect 29 0 19 0;
#X connect 29 0 30 0;
#X connect 30 0 10 0;
#X connect 30 0 12 0;
#X restore 208 169 pd diffusor-right;
#X obj 208 61 *~ 0.015;
#X obj 15 226 *~ 1;
#X obj 208 228 *~ 1;
#X obj 94 228 *~ 1;
#X obj 169 228 *~ 1;
#X obj 115 202 r \$0-dry;
#X obj 229 203 r \$0-wet;
#X obj 36 201 r \$0-wet;
#X obj 94 14 inlet~;
#X obj 208 14 inlet~;
#X obj 15 268 outlet~;
#X obj 169 269 outlet~;
#X obj 312 14 inlet;
#X obj 374 14 inlet;
#X obj 462 14 inlet;
#X obj 544 16 inlet;
#N canvas 0 50 207 207 room 0;
#X obj 32 35 inlet;
#X obj 32 63 * 0.28;
#X obj 32 94 + 0.7;
#X obj 32 160 outlet;
#X text 80 65 scaleroom;
#X text 76 94 offsetroom;
#X obj 47 126 s \$0-room;
#X connect 0 0 1 0;
#X connect 1 0 2 0;
#X connect 2 0 3 0;
#X connect 2 0 6 0;
#X restore 312 45 pd room;
#N canvas 684 169 244 376 frequency 0;
#X obj 60 222 samplerate~;
#X obj 33 8 inlet;
#X obj 33 194 t f b;
#X obj 33 249 *;
#X obj 53 303 s \$0-frequency;
#X obj 33 327 outlet;
#X obj 33 64 * 0.4;
#X text 76 66 scaledamp;
#X obj 33 38 clip 0 2;
#X obj 33 90 t b f;
#X obj 33 141 -;
#X msg 33 116 1;
#X obj 33 168 abs;
#X obj 33 275 * 0.5;
#X text 153 303 for [lop~];
#X connect 0 0 3 1;
#X connect 1 0 8 0;
#X connect 2 0 3 0;
#X connect 2 1 0 0;
#X connect 3 0 13 0;
#X connect 6 0 9 0;
#X connect 8 0 6 0;
#X connect 9 0 11 0;
#X connect 9 1 10 1;
#X connect 10 0 12 0;
#X connect 11 0 10 0;
#X connect 12 0 2 0;
#X connect 13 0 5 0;
#X connect 13 0 4 0;
#X restore 374 45 pd frequency;
#N canvas 0 50 170 187 scalewet 0;
#X obj 22 42 inlet;
#X obj 22 143 outlet;
#X obj 22 73 * 3;
#X text 49 74 scalewet;
#X obj 40 112 s \$0-wet;
#X connect 0 0 2 0;
#X connect 2 0 1 0;
#X connect 2 0 4 0;
#X restore 544 45 pd scalewet;
#N canvas 0 50 220 198 scaledry 0;
#X obj 32 74 * 2;
#X obj 32 40 inlet;
#X obj 32 141 outlet;
#X text 58 75 scaledry;
#X obj 41 105 s \$0-dry;
#X connect 0 0 2 0;
#X connect 0 0 4 0;
#X connect 1 0 0 0;
#X restore 462 45 pd scaledry;
#X floatatom 312 70 5 0 0 0 - - -, f 5;
#X floatatom 374 70 10 0 0 0 - - -, f 10;
#X floatatom 462 69 5 0 0 0 - - -, f 5;
#X floatatom 544 69 5 0 0 0 - - -, f 5;
#N canvas 405 50 635 684 tuning 0;
#X msg 332 81 1139 \, 1211 \, 1300 \, 1379 \, 1445 \, 1514 \, 1580
\, 1640;
#X text 72 57 combfilter tunings left;
#X text 377 56 combfilter tunings right;
#X text 71 360 allpass tunings left;
#X text 383 355 allpass tunings right;
#N canvas 243 170 195 233 sampstoms 0;
#X obj 27 21 inlet;
#X obj 54 86 samplerate~;
#X obj 27 111 /;
#X obj 27 57 t f b;
#X obj 27 136 * 1000;
#X obj 27 162 outlet;
#X connect 0 0 3 0;
#X connect 1 0 2 1;
#X connect 2 0 4 0;
#X connect 3 0 2 0;
#X connect 3 1 1 0;
#X connect 4 0 5 0;
#X restore 30 107 pd sampstoms;
#X msg 30 82 1116 \, 1188 \, 1277 \, 1356 \, 1422 \, 1491 \, 1557 \,
1617;
#X obj 57 188 +;
#X msg 57 159 1;
#X obj 30 135 t f b;
#X obj 87 188 f;
#X obj 30 56 t b b;
#X msg 87 159 0;
#X obj 57 212 pack f \$0;
#X msg 57 238 \$2-comb\$1left;
#X obj 30 282 s;
#X obj 57 265 symbol;
#N canvas 0 50 195 233 sampstoms 0;
#X obj 27 21 inlet;
#X obj 54 86 samplerate~;
#X obj 27 111 /;
#X obj 27 57 t f b;
#X obj 27 136 * 1000;
#X obj 27 162 outlet;
#X connect 0 0 3 0;
#X connect 1 0 2 1;
#X connect 2 0 4 0;
#X connect 3 0 2 0;
#X connect 3 1 1 0;
#X connect 4 0 5 0;
#X restore 332 107 pd sampstoms;
#X obj 359 188 +;
#X msg 359 159 1;
#X obj 332 135 t f b;
#X obj 389 188 f;
#X msg 389 159 0;
#X obj 359 212 pack f \$0;
#X obj 332 282 s;
#X obj 359 265 symbol;
#X obj 332 56 t b b;
#X msg 359 238 \$2-comb\$1right;
#X obj 30 360 t b b;
#N canvas 0 50 195 233 sampstoms 0;
#X obj 27 21 inlet;
#X obj 54 86 samplerate~;
#X obj 27 111 /;
#X obj 27 57 t f b;
#X obj 27 136 * 1000;
#X obj 27 162 outlet;
#X connect 0 0 3 0;
#X connect 1 0 2 1;
#X connect 2 0 4 0;
#X connect 3 0 2 0;
#X connect 3 1 1 0;
#X connect 4 0 5 0;
#X restore 30 411 pd sampstoms;
#X obj 57 492 +;
#X msg 57 463 1;
#X obj 30 439 t f b;
#X obj 87 492 f;
#X msg 87 463 0;
#X obj 57 516 pack f \$0;
#X obj 30 586 s;
#X obj 57 569 symbol;
#X obj 334 356 t b b;
#N canvas 0 50 195 233 sampstoms 0;
#X obj 27 21 inlet;
#X obj 54 86 samplerate~;
#X obj 27 111 /;
#X obj 27 57 t f b;
#X obj 27 136 * 1000;
#X obj 27 162 outlet;
#X connect 0 0 3 0;
#X connect 1 0 2 1;
#X connect 2 0 4 0;
#X connect 3 0 2 0;
#X connect 3 1 1 0;
#X connect 4 0 5 0;
#X restore 334 407 pd sampstoms;
#X obj 361 488 +;
#X msg 361 459 1;
#X obj 334 435 t f b;
#X obj 391 488 f;
#X msg 391 459 0;
#X obj 361 512 pack f \$0;
#X obj 334 582 s;
#X obj 361 565 symbol;
#X obj 30 22 loadbang;
#X obj 332 27 loadbang;
#X obj 30 334 loadbang;
#X obj 334 331 loadbang;
#X obj 268 41 bng 15 250 50 0 empty empty empty 17 7 0 10 -262144 -1
-1;
#X msg 30 386 225 \, 556 \, 441 \, 341;
#X msg 334 380 248 \, 579 \, 464 \, 364;
#X msg 57 542 \$2-allpass\$1left;
#X msg 361 539 \$2-allpass\$1right;
#X text 27 624 Original Freeverb delay line lengths are converted to
milliseconds \, based on samplerate.;
#X connect 0 0 17 0;
#X connect 5 0 9 0;
#X connect 6 0 5 0;
#X connect 7 0 10 0;
#X connect 7 0 13 0;
#X connect 8 0 7 0;
#X connect 9 0 15 0;
#X connect 9 1 8 0;
#X connect 10 0 7 1;
#X connect 11 0 6 0;
#X connect 11 1 12 0;
#X connect 12 0 10 0;
#X connect 13 0 14 0;
#X connect 14 0 16 0;
#X connect 16 0 15 1;
#X connect 17 0 20 0;
#X connect 18 0 21 0;
#X connect 18 0 23 0;
#X connect 19 0 18 0;
#X connect 20 0 24 0;
#X connect 20 1 19 0;
#X connect 21 0 18 1;
#X connect 22 0 21 0;
#X connect 23 0 27 0;
#X connect 25 0 24 1;
#X connect 26 0 0 0;
#X connect 26 1 22 0;
#X connect 27 0 25 0;
#X connect 28 0 53 0;
#X connect 28 1 34 0;
#X connect 29 0 32 0;
#X connect 30 0 33 0;
#X connect 30 0 35 0;
#X connect 31 0 30 0;
#X connect 32 0 36 0;
#X connect 32 1 31 0;
#X connect 33 0 30 1;
#X connect 34 0 33 0;
#X connect 35 0 55 0;
#X connect 37 0 36 1;
#X connect 38 0 54 0;
#X connect 38 1 44 0;
#X connect 39 0 42 0;
#X connect 40 0 43 0;
#X connect 40 0 45 0;
#X connect 41 0 40 0;
#X connect 42 0 46 0;
#X connect 42 1 41 0;
#X connect 43 0 40 1;
#X connect 44 0 43 0;
#X connect 45 0 56 0;
#X connect 47 0 46 1;
#X connect 48 0 11 0;
#X connect 49 0 26 0;
#X connect 50 0 28 0;
#X connect 51 0 38 0;
#X connect 52 0 11 0;
#X connect 52 0 28 0;
#X connect 52 0 26 0;
#X connect 52 0 38 0;
#X connect 53 0 29 0;
#X connect 54 0 39 0;
#X connect 55 0 37 0;
#X connect 56 0 47 0;
#X restore 410 141 pd tuning;
#X connect 0 0 1 0;
#X connect 1 0 7 0;
#X connect 2 0 1 0;
#X connect 3 0 5 0;
#X connect 4 0 5 0;
#X connect 5 0 8 0;
#X connect 6 0 3 0;
#X connect 6 0 0 0;
#X connect 6 0 4 0;
#X connect 6 0 2 0;
#X connect 7 0 16 0;
#X connect 8 0 17 0;
#X connect 9 0 16 0;
#X connect 10 0 17 0;
#X connect 11 0 10 1;
#X connect 11 0 9 1;
#X connect 12 0 8 1;
#X connect 13 0 7 1;
#X connect 14 0 6 0;
#X connect 14 0 9 0;
#X connect 15 0 6 0;
#X connect 15 0 10 0;
#X connect 18 0 22 0;
#X connect 19 0 23 0;
#X connect 20 0 25 0;
#X connect 21 0 24 0;
#X connect 22 0 26 0;
#X connect 23 0 27 0;
#X connect 24 0 29 0;
#X connect 25 0 28 0;
#X restore 95 353 pd vfreeverb~;
#X text 199 383 Katja Vetter May 2012;
#X text 200 352 Freeverb implemented with Pd vanilla objects;
#X obj 60 268 inlet~;
#X obj 78 295 inlet~;
#X obj 77 413 outlet~;
#X obj 171 415 outlet~;
#X obj 338 16 ctlin 14;
#X obj 323 85 / 127;
#X obj 387 48 / 127;
#X obj 387 78 * -1;
#X obj 387 111 + 1;
#X obj 118 19 ctlin 14;
#X obj 117 50 / 127;
#X obj 117 105 + 0.1;
#X obj 119 78 * 0.9;
#X obj 289 143 + 0.15;
#X obj 289 120 * 0.75;
#X obj 384 163 + 0.45;
#X obj 384 140 * 0.45;
#X connect 0 0 2 0;
#X connect 0 0 8 2;
#X connect 1 0 3 0;
#X connect 1 0 8 3;
#X connect 4 0 6 0;
#X connect 4 0 8 5;
#X connect 5 0 7 0;
#X connect 5 0 8 4;
#X connect 8 0 13 0;
#X connect 8 1 14 0;
#X connect 11 0 8 0;
#X connect 12 0 8 1;
#X connect 15 0 16 0;
#X connect 15 0 17 0;
#X connect 16 0 25 0;
#X connect 17 0 18 0;
#X connect 18 0 19 0;
#X connect 19 0 27 0;
#X connect 20 0 21 0;
#X connect 21 0 23 0;
#X connect 22 0 0 0;
#X connect 23 0 22 0;
#X connect 24 0 4 0;
#X connect 25 0 24 0;
#X connect 26 0 5 0;
#X connect 27 0 26 0;
#X restore 282 322 pd reverb;
#X text 343 489 Right output;
#X text 236 489 Left output;
#N canvas 274 317 1301 701 delay 0;
#X obj 186 428 outlet~;
#X obj 186 28 inlet~;
#X obj 56 111 delwrite~ left 4000;
#X obj 135 326 vd~ left;
#X obj 136 225 ctlin 13;
#X obj 135 257 / 127;
#X obj 299 116 / 127;
#X obj 363 79 / 127;
#X obj 363 109 * -1;
#X obj 363 142 + 1;
#X obj 313 47 ctlin 13;
#X obj 135 346 hip~ 500;
#X obj 167 394 *~;
#X obj 250 386 *~;
#X obj 135 283 * 500;
#X obj 283 322 hsl 128 15 0 1 0 1 empty empty wet 20 8 0 10 -262144
-260097 -1 3350 0;
#X obj 268 270 hsl 128 15 0 1 0 1 empty empty dry 20 8 0 10 -262144
-260097 -1 9350 0;
#X floatatom 280 344 5 0 0 0 - - -, f 5;
#X floatatom 268 296 5 0 0 0 - - -, f 5;
#X obj 265 151 * 0.5;
#X obj 360 171 * 0.5;
#X obj 360 194 + 0.5;
#X obj 72 242 *~;
#X obj 92 190 + 0.45;
#X obj 142 305 line 500;
#X connect 1 0 2 0;
#X connect 1 0 13 0;
#X connect 3 0 11 0;
#X connect 4 0 5 0;
#X connect 5 0 14 0;
#X connect 6 0 19 0;
#X connect 7 0 8 0;
#X connect 8 0 9 0;
#X connect 9 0 20 0;
#X connect 10 0 6 0;
#X connect 10 0 7 0;
#X connect 11 0 12 0;
#X connect 11 0 22 0;
#X connect 12 0 0 0;
#X connect 13 0 0 0;
#X connect 14 0 24 0;
#X connect 15 0 17 0;
#X connect 15 0 23 0;
#X connect 16 0 18 0;
#X connect 17 0 12 1;
#X connect 18 0 13 1;
#X connect 19 0 15 0;
#X connect 20 0 21 0;
#X connect 21 0 16 0;
#X connect 22 0 2 0;
#X connect 23 0 22 1;
#X connect 24 0 3 0;
#X restore 287 264 pd delay;
#N canvas 356 249 450 300 distortion 0;
#X obj 219 40 inlet~;
#X obj 213 256 outlet~;
#X obj 213 175 clip~ -0.5 0.5;
#X obj 227 130 *~;
#X obj 303 27 ctlin 12;
#X obj 79 105 expr $i1 == 0;
#X obj 55 60 ctlin 12;
#X obj 166 164 *~;
#X obj 225 78 /~ 10;
#X obj 308 72 / 2;
#X obj 307 96 + 40;
#X obj 227 211 /~ 1.5;
#X connect 0 0 7 1;
#X connect 0 0 8 0;
#X connect 2 0 11 0;
#X connect 3 0 2 0;
#X connect 4 0 9 0;
#X connect 5 0 7 0;
#X connect 6 0 5 0;
#X connect 7 0 1 0;
#X connect 8 0 3 0;
#X connect 9 0 10 0;
#X connect 10 0 3 1;
#X connect 11 0 1 0;
#X restore 285 168 pd distortion;
#X obj 366 396 *~;
#X obj 281 393 *~;
#X obj 436 211 ctlin 15;
#X obj 436 281 / 127;
#X connect 0 0 7 0;
#X connect 3 0 9 0;
#X connect 3 1 8 0;
#X connect 6 0 3 0;
#X connect 6 0 3 1;
#X connect 7 0 6 0;
#X connect 8 0 2 0;
#X connect 9 0 1 0;
#X connect 10 0 11 0;
#X connect 11 0 8 1;
#X connect 11 0 9 1;
#X restore 367 407 pd fx;
#X obj 369 526 dac~;
#X text 502 471 Final gain staging;
#X msg 206 337 \; pd dsp 1;
#X obj 231 241 loadbang;
#N canvas 593 289 574 719 am2 0;
#X obj 168 346 osc~;
#X obj 151 310 mtof~;
#X obj 197 382 *~;
#X obj 199 249 ctlin 0;
#X obj 296 188 phasor~;
#X obj 294 210 expr~ $v1 < $v2;
#X obj 301 106 mtof~;
#X obj 300 85 ctlin 1;
#X obj 386 143 / 127;
#X obj 187 435 outlet~;
#X obj 308 131 /~ 15;
#X obj 191 414 *~ 1.5;
#X obj 381 108 ctlin 2;
#X obj 61 162 samphold~;
#X obj 123 118 phasor~;
#X obj 122 72 mtof~;
#X obj 121 140 expr~ $v1 < 0.2;
#X obj 122 50 ctlin 3;
#X obj 60 120 noise~;
#X obj 160 282 +~;
#X obj 77 193 *~ 127;
#X obj 7 157 ctlin 3;
#X obj 7 190 /~ 127;
#X obj 47 237 *~;
#X obj 290 241 lop~ 800;
#X obj 123 94 /~ 100;
#X connect 0 0 2 0;
#X connect 1 0 0 0;
#X connect 2 0 11 0;
#X connect 3 0 19 1;
#X connect 4 0 5 0;
#X connect 5 0 24 0;
#X connect 6 0 10 0;
#X connect 7 0 6 0;
#X connect 8 0 5 1;
#X connect 10 0 4 0;
#X connect 11 0 9 0;
#X connect 12 0 8 0;
#X connect 13 0 20 0;
#X connect 14 0 16 0;
#X connect 15 0 25 0;
#X connect 16 0 13 1;
#X connect 17 0 15 0;
#X connect 18 0 13 0;
#X connect 19 0 1 0;
#X connect 20 0 23 1;
#X connect 21 0 22 0;
#X connect 22 0 23 0;
#X connect 23 0 19 0;
#X connect 24 0 2 1;
#X connect 25 0 14 0;
#X restore 362 228 pd am2;
#X obj 400 465 /~ 5;
#X obj 350 465 /~ 5;
#X connect 0 0 1 1;
#X connect 1 0 2 0;
#X connect 2 0 9 0;
#X connect 2 1 8 0;
#X connect 6 0 5 0;
#X connect 7 0 1 0;
#X connect 8 0 3 1;
#X connect 9 0 3 0;
